<?xml version="1.0" standalone="no"?>
<!DOCTYPE svg PUBLIC "-//W3C//DTD SVG 20010904//EN"
 "http://www.w3.org/TR/2001/REC-SVG-20010904/DTD/svg10.dtd">
<svg version="1.0" xmlns="http://www.w3.org/2000/svg"
 width="512.000000pt" height="512.000000pt" viewBox="0 0 512.000000 512.000000"
 preserveAspectRatio="xMidYMid meet">
<metadata>
Created by potrace 1.11, written by Peter Selinger 2001-2013
</metadata>
<g transform="translate(0.000000,512.000000) scale(0.100000,-0.100000)"
fill="#000000" stroke="none">
<path d="M330 2560 l0 -2230 2230 0 2230 0 0 2230 0 2230 -2230 0 -2230 0 0
-2230z m1460 1465 l0 -695 -695 0 -695 0 0 695 0 695 695 0 695 0 0 -695z
m1470 0 l0 -695 -700 0 -700 0 0 695 0 695 700 0 700 0 0 -695z m1460 0 l0
-695 -695 0 -695 0 0 695 0 695 695 0 695 0 0 -695z m-2930 -1465 l0 -700
-695 0 -695 0 0 700 0 700 695 0 695 0 0 -700z m1465 0 l0 -695 -695 0 -695 0
-3 685 c-1 377 0 691 3 698 3 10 148 12 697 10 l693 -3 0 -695z m1465 0 l0
-700 -695 0 -695 0 0 700 0 700 695 0 695 0 0 -700z m-2930 -1465 l0 -695
-695 0 -695 0 0 695 0 695 695 0 695 0 0 -695z m1470 0 l0 -695 -700 0 -700 0
0 695 0 695 700 0 700 0 0 -695z m1460 0 l0 -695 -695 0 -695 0 0 695 0 695
695 0 695 0 0 -695z"/>
<path d="M2472 4599 c-281 -42 -492 -287 -492 -571 0 -99 14 -166 55 -253 44
-96 111 -174 201 -234 105 -71 190 -96 324 -96 134 0 219 25 324 96 245 163
326 477 194 749 -40 83 -158 203 -244 248 -106 55 -244 78 -362 61z"/>
<path d="M3876 3124 c-88 -21 -191 -80 -261 -149 -200 -197 -231 -505 -74
-740 164 -244 479 -325 749 -193 83 41 203 160 247 243 65 124 84 290 49 424
-51 198 -220 365 -421 416 -73 18 -210 18 -289 -1z"/>
<path d="M985 1670 c-175 -35 -332 -156 -409 -314 -44 -92 -60 -161 -59 -266
1 -257 173 -481 428 -556 92 -27 229 -23 330 10 339 109 500 491 343 814 -45
94 -169 217 -261 261 -113 54 -258 74 -372 51z"/>
<path d="M2411 1660 c-357 -94 -534 -490 -369 -830 45 -94 160 -206 258 -253
96 -46 155 -59 260 -59 105 0 164 13 260 59 97 47 211 158 258 253 112 229 72
497 -103 675 -147 149 -362 208 -564 155z"/>
<path d="M3893 1666 c-111 -26 -190 -71 -278 -160 -129 -130 -182 -266 -172
-441 18 -312 264 -546 577 -548 63 0 115 6 155 17 200 59 353 212 411 411 21
72 23 207 5 285 -33 139 -140 290 -255 359 -133 80 -302 109 -443 77z"/>
</g>
</svg>
